<svg xmlns="http://www.w3.org/2000/svg" version="1.1" xmlns:xlink="http://www.w3.org/1999/xlink" width="512" height="512" x="0" y="0" viewBox="0 0 512 512" style="enable-background:new 0 0 512 512" xml:space="preserve" class=""><g><path d="M256 7.194c-138.071 0-250 111.928-250 250s111.929 250 250 250 250-111.929 250-250-111.929-250-250-250zm.78 387.887c-80.431 0-139.842-57.807-139.842-137.672s58.332-138.1 139.2-138.1c68.806 0 125.091 43.058 136.194 104.06h-75.788c-9.5-22.114-32.989-36.331-59.76-36.331-39.319 0-65.821 28.433-65.821 70.377 0 41.513 26.07 69.946 65.821 69.946 27.6 0 51.267-13.358 59.521-33.6H251.11v-45.595l143.953-.008c0 85.899-56.078 146.923-138.283 146.923z" fill="#7289da" opacity="1" data-original="#000000" class=""></path></g></svg>