<?xml version="1.0" encoding="UTF-8"?>
<svg xmlns="http://www.w3.org/2000/svg" xmlns:xlink="http://www.w3.org/1999/xlink" version="1.1" width="512" height="512" x="0" y="0" viewBox="0 0 512 512" style="enable-background:new 0 0 512 512" xml:space="preserve" class="">
  <g>
    <path d="M256 6C117.929 6 6 117.929 6 256s111.929 250 250 250 250-111.929 250-250S394.071 6 256 6zm3.033 387.885c-79.9 0-139.569-59.149-139.569-137.672 0-78.957 59.671-138.106 139.569-138.106 68.8 0 122.079 45.409 132.748 111.969H318.51c-9.011-26.922-31.692-44.4-59.319-44.4-37.17 0-64.434 29.888-64.434 70.535 0 40.489 27.264 69.945 64.434 69.945 29.126 0 52.024-18.979 59.377-48.15h73.968c-9.98 69.026-63.583 115.879-133.503 115.879z" fill="#7289da" opacity="1" data-original="#000000" class=""/>
  </g>
</svg>
