<svg id="Capa_1" enable-background="new 0 0 512 512" height="512" viewBox="0 0 512 512" width="512" xmlns="http://www.w3.org/2000/svg"><g><g><g><g><circle cx="256" cy="256" fill="#005fe0" r="256"/></g></g></g><path d="m102.699 282.79 67.832 67.832-.691.69 82.044 82.044-5.32 31.475 44.734 44.734c124.679-17.197 220.702-124.158 220.702-253.565 0-20.448-2.412-40.331-6.941-59.393l-90.256-90.256z" fill="#00429c"/><g><g><path d="m190.616 118.669-38.38-20.005c-21.208-11.054-46.674-4.882-61.471 14.898l-36.115 48.278c-16.286 21.771-14.737 53.301 3.591 73.09l42.237 45.604c20.559 22.198 54.161 21.214 73.576-2.154l16.562-19.935z" fill="#bdbdbd"/><path d="m321.384 118.669 38.38-20.005c21.208-11.054 46.674-4.882 61.471 14.898l36.115 48.278c16.286 21.771 14.737 53.301-3.591 73.09l-42.237 45.604c-20.559 22.198-54.161 21.214-73.576-2.154l-16.562-19.935z" fill="#a9a9a9"/></g><g><path d="m169.785 351.257c-2.541-2.541-2.847-6.555-.721-9.452l40.095-54.638 24.716 24.716-54.638 40.095c-2.897 2.126-6.912 1.819-9.452-.721z" fill="#fff"/><path d="m342.215 351.257c-2.541 2.541-6.555 2.847-9.452.721l-54.638-40.095 24.716-24.716 40.095 54.638c2.126 2.896 1.82 6.911-.721 9.452z" fill="#ebf3ff"/></g><g fill="#ccc"><path d="m295.295 190.442-39.295 96.725c-53.42 0-96.725-43.305-96.725-96.725s43.305-96.725 96.725-96.725z"/><path d="m282.865 270.838-26.865 68.374c-37.762 0-68.374-30.612-68.374-68.374s30.612-68.374 68.374-68.374z"/><path d="m256 302.479h-37.325l12.771 123.437c0 19.47 9.721 36.702 24.554 47.131l6.458-92.749z"/></g><g fill="#bdbdbd"><path d="m352.725 190.442c0 53.42-43.305 96.725-96.725 96.725v-193.45c53.42 0 96.725 43.305 96.725 96.725z"/><path d="m324.374 270.838c0 37.762-30.612 68.374-68.374 68.374v-136.748c37.762 0 68.374 30.612 68.374 68.374z"/><path d="m256 302.479v170.568c9.361 6.582 20.752 10.462 33.039 10.462v-51.078c-3.593 0-6.515-2.922-6.515-6.515l12.771-123.437z"/></g><g><circle cx="208.696" cy="220.224" fill="#464646" r="7.63"/><circle cx="303.304" cy="220.224" fill="#2d2d2d" r="7.63"/></g></g></g></svg>