<svg id="Capa_1" enable-background="new 0 0 512 512" viewBox="0 0 512 512" xmlns="http://www.w3.org/2000/svg"><g><circle cx="256" cy="256" fill="#9ada63" r="256"/><path d="m297.647 231.743-115.902-115.903-4.327 4.327-74.867 74.867-4.327 4.327 103.69 103.69-50.514 50.514 36.437 36.437-11.161 11.161 109.102 109.102c127.353-14.754 226.222-122.955 226.222-254.265 0-15.536-1.386-30.748-4.038-45.521l-94.526-94.526z" fill="#6abf48"/><g><g><path d="m215.48 121.118c-8.978 2.875-16.571 6.389-22.714 9.74-9.802-19.052-29.645-32.094-52.546-32.094-32.624 0-59.072 26.447-59.072 59.072 0 25.897 16.672 47.885 39.862 55.86.195 4.339.594 10.397 1.486 17.615 1.502 12.145 2.662 13.503 3.082 21.062.604 10.854-1.502 13.189-1.935 25.616-.063 1.795-.492 12.159 1.55 23.444 1.397 7.72 4.969 26.221 19.264 44.308 8.103 10.251 17.229 17.307 25.138 22.093 2.937 16.798 10.203 29.046 27.321 51.655 13.656 18.037 25.766 24.427 28.917 26.012 11.934 6.008 23.123 7.428 30.166 7.735l46.24-188.28-46.239-150.05c-12.049-.028-25.893 1.529-40.52 6.212z" fill="#fde575"/><path d="m315.083 419.49c17.118-22.609 24.384-34.858 27.321-51.655 7.909-4.786 17.036-11.842 25.138-22.093 14.296-18.087 17.868-36.588 19.264-44.308 2.042-11.285 1.612-21.648 1.55-23.444-.433-12.427-2.539-14.763-1.935-25.616.421-7.56 1.581-8.918 3.082-21.062.893-7.218 1.291-13.276 1.486-17.615 23.19-7.974 39.862-29.963 39.862-55.86 0-32.624-26.447-59.072-59.071-59.072-22.901 0-42.744 13.041-52.546 32.094-6.143-3.352-13.736-6.866-22.714-9.74-5.447-1.744-20.506-6.165-40.52-6.212v338.332c7.043-.307 18.231-1.727 30.166-7.735 3.15-1.587 15.261-7.977 28.917-26.014z" fill="#fcc74c"/><path d="m183.103 157.836c-1.419 5.996-5.641 6.13-21.562 22.104-15.364 15.416-15.523 19.396-21.321 20.779-14.928 3.562-42.883-15.898-42.883-42.883 0-23.684 19.199-42.883 42.883-42.883 27.012 0 46.42 27.94 42.883 42.883z" fill="#fcc74c"/><path d="m328.897 157.836c1.419 5.996 5.641 6.13 21.562 22.104 15.364 15.416 15.523 19.396 21.321 20.779 14.928 3.562 42.883-15.898 42.883-42.883 0-23.684-19.199-42.883-42.883-42.883-27.012 0-46.42 27.94-42.883 42.883z" fill="#f49f36"/><path d="m256 331.373-46.24-12.979c-26.809 0-47.205 21.733-47.205 48.543 0 26.809 21.733 48.543 48.543 48.543 20.275 0 37.638-12.434 44.902-30.088l15.219-27.705z" fill="#fcc74c"/><path d="m256 331.373 46.24-12.979c26.809 0 47.205 21.733 47.205 48.543 0 26.809-21.733 48.543-48.543 48.543-20.275 0-37.638-12.434-44.902-30.088z" fill="#f49f36"/><path d="m209.76 318.394 46.24 45.521 11.88-29.86-11.88-15.661z" fill="#555a65"/><path d="m302.24 318.394-46.24 45.521v-45.521z" fill="#333940"/></g><g><g fill="#555a65"><circle cx="214.955" cy="151.073" r="7.5"/><circle cx="151.801" cy="310.147" r="7.5"/><circle cx="164.302" cy="272.84" r="12.5"/><circle cx="146.548" cy="240.776" r="10"/><circle cx="230.887" cy="203.936" r="12.5"/><circle cx="195.785" cy="183.499" r="10"/><path d="m243.5 138.573c0 6.904 5.596 12.5 12.5 12.5l6.25-12.5-6.25-12.5c-6.904 0-12.5 5.596-12.5 12.5z"/></g><path d="m268.5 138.573c0-6.904-5.596-12.5-12.5-12.5v25c6.904 0 12.5-5.597 12.5-12.5z" fill="#333940"/><circle cx="297.045" cy="151.073" fill="#333940" r="7.5"/><circle cx="360.199" cy="310.147" fill="#333940" r="7.5"/><circle cx="347.698" cy="272.84" fill="#333940" r="12.5"/><circle cx="365.452" cy="240.776" fill="#333940" r="10"/><circle cx="281.113" cy="203.936" fill="#333940" r="12.5"/><circle cx="316.215" cy="183.499" fill="#333940" r="10"/></g></g></g><g/><g/><g/><g/><g/><g/><g/><g/><g/><g/><g/><g/><g/><g/><g/></svg>