<svg id="Capa_1" enable-background="new 0 0 512 512" height="512" viewBox="0 0 512 512" width="512" xmlns="http://www.w3.org/2000/svg"><g><g><g><circle cx="256" cy="256" fill="#58b354" r="256"/></g></g><path d="m506.855 204.701-157.554-157.554-24.606 67.313-66.433-66.433-11.887 59.314-51.976-51.976-29.079 70.884 34.396 34.396-28.95 102.048 13.78 13.78 51.035 121.87-25.251 54.656 58.674 58.674c135.342-6.772 242.996-118.649 242.996-255.673 0-17.57-1.773-34.725-5.145-51.299z" fill="#3f883c"/><g><circle cx="184.546" cy="246.529" fill="#fff" r="21.173"/><circle cx="327.454" cy="246.529" fill="#ebf3ff" r="21.173"/><g><path d="m292.642 402.707 12.151-32.738.581-5.469 3.863-6.792 8.821-24.335 1.858-10.498 4.473-7.146c2.483-7.613 4.167-15.468 5.021-23.437l-.91-9.125 3.276-12.954 4.992-46.592c1.845-17.224-.22-34.642-6.042-50.956l-14.476-40.562-60.107-39.469-11.36 153.25 11.36 162.499z" fill="#ebf3ff"/><path d="m314.562 132.731c17.313 5.692 35.962-3.728 41.654-21.041s4.962-62.392-12.351-68.084-44.652 30.158-50.344 47.471l-8.807 28.164 24.76 20.896z" fill="#ebf3ff"/><g fill="#2d2d2d"><path d="m255.858 128.716 27.568 80.069-27.568 96.516 40.516-97.814z"/><path d="m255.858 159.013 9.656 52.369-9.656 66.045 18.516-66.934z"/><path d="m331.786 270.212-39.915 14.748-17.326 67.756h6.957l21.663-56.936 26.255-3.488z"/><path d="m324.389 315.722h-12.774l-26.9 51.081 26.9-34.235 6.443.805z"/><path d="m309.238 357.708-22.324 18.707 17.88-6.446z"/><path d="m270.704 114.401 49.687 68.849-33.641-70.519-12.215-8.021z"/></g><path d="m219.073 402.707-11.859-32.717-1.031-5.533-3.42-6.748-8.821-24.335-4.292-14.054-2.04-3.595c-2.483-7.612-4.166-15.465-5.019-23.433l.779-9.757-3.139-12.268-4.998-46.647c-1.845-17.224.22-34.642 6.042-50.956l14.476-40.562 60.107-39.469v315.749z" fill="#fff"/><path d="m197.438 132.731c-17.313 5.692-35.962-3.728-41.654-21.041s-4.962-62.392 12.351-68.084 44.652 30.158 50.344 47.471l8.807 28.164-24.76 20.896z" fill="#fff"/><path d="m255.858 120.6c-9.191 0-15.643-17.695-15.643-17.695l12.909-54.878h2.734l3.423 41.708z" fill="#464646"/><path d="m255.858 128.716-27.569 80.069 27.569 96.516-40.517-97.814z" fill="#464646"/><path d="m255.858 159.013-9.657 52.369 9.657 66.045-18.517-66.934z" fill="#464646"/><path d="m180.224 270.212 39.914 14.748 17.327 67.756h-6.958l-21.662-56.936-26.255-3.488z" fill="#464646"/><path d="m187.611 315.722h12.774l26.9 51.081-26.9-34.235-6.443.805z" fill="#464646"/><path d="m202.762 357.708 22.324 18.707-17.88-6.446z" fill="#464646"/><g><path d="m265.258 117.41 43.737 91.375-31.532 68.642-12.205 75.289 19.314-72.517 40.158-70.548z" fill="#2d2d2d"/><path d="m246.457 117.41-43.737 91.375 31.532 68.642 12.205 75.289-19.314-72.517-40.158-70.548z" fill="#464646"/></g><path d="m241.296 114.401-49.687 68.849 33.641-70.519 12.215-8.021z" fill="#464646"/><g><path d="m219.073 402.707 11.434-49.991h25.351l4.772 34.672-4.772 39.207h-28.557z" fill="#464646"/><path d="m292.642 402.707-11.434-49.991h-25.35v73.879h28.556z" fill="#2d2d2d"/></g><g><g><g><circle cx="230.507" cy="430.577" fill="#464646" r="30.122"/><circle cx="281.208" cy="430.577" fill="#2d2d2d" r="30.122"/></g><path d="m278.008 430.577-22.151 44.301c-24.467 0-44.301-19.834-44.301-44.301s19.834-44.301 44.301-44.301z" fill="#464646"/></g><path d="m300.159 430.577c0 24.467-19.834 44.301-44.301 44.301v-88.603c24.467 0 44.301 19.835 44.301 44.302z" fill="#2d2d2d"/></g><path d="m255.858 120.6c9.191 0 14.846-18.405 14.846-18.405l-12.442-54.168h-2.404z" fill="#2d2d2d"/></g><g><g><path d="m192.924 246.778s-7.281 13.51-18.93 13.356c-7.514-.1-13.524-6.271-13.424-13.785s6.271-13.524 13.785-13.424c10.143.134 18.569 13.853 18.569 13.853z" fill="#464646"/></g><g><path d="m319.076 246.778s7.281 13.51 18.93 13.356c7.513-.1 13.524-6.271 13.424-13.785s-6.271-13.524-13.785-13.424c-10.143.134-18.569 13.853-18.569 13.853z" fill="#2d2d2d"/></g></g><g><g><path d="m219.321 426.595s6.678 3.599 6.601 9.356c-.049 3.714-3.1 6.684-6.813 6.635-3.714-.049-6.684-3.1-6.635-6.813.067-5.013 6.847-9.178 6.847-9.178z" fill="#5a5a5a"/></g><g><path d="m292.925 426.595s6.678 3.599 6.601 9.356c-.049 3.714-3.1 6.684-6.813 6.635-3.714-.049-6.684-3.1-6.635-6.813.066-5.013 6.847-9.178 6.847-9.178z" fill="#464646"/></g></g></g></g></svg>